<svg xmlns="http://www.w3.org/2000/svg" width="400" height="400"><g fill-rule="evenodd"><path d="M176.4 4c0 .222-1.067.4-2.4.4s-2.4.178-2.4.4c0 .22-.72.4-1.6.4-.88 0-1.6.18-1.6.4 0 .226-1.133.4-2.6.4s-2.6.174-2.6.4c0 .222-1.067.4-2.4.4s-2.4.178-2.4.4c0 .22-.54.4-1.2.4-.66 0-1.2.154-1.2.342 0 .188-1.288.45-2.862.582-1.574.132-3.05.428-3.28.658-.23.23-1.181.418-2.114.418-.933 0-1.808.18-1.944.4-.136.22-.676.4-1.2.4-.524 0-1.064.18-1.2.4-.136.22-.687.4-1.224.4-.537 0-.976.18-.976.4 0 .22-.54.4-1.2.4-.66 0-1.2.18-1.2.4 0 .22-.54.4-1.2.4-.66 0-1.2.18-1.2.4 0 .22-.54.4-1.2.4-.66 0-1.2.18-1.2.4 0 .22-.54.4-1.2.4-.66 0-1.2.18-1.2.4 0 .22-.36.4-.8.4-.44 0-.8.18-.8.4 0 .22-.45.4-1 .4s-1 .18-1 .4c0 .22-.45.4-1 .4s-1 .18-1 .4c0 .22-.45.4-1 .4s-1 .18-1 .4c0 .22-.36.4-.8.4-.44 0-.8.18-.8.4 0 .22-.355.4-.788.4-.433 0-1.429.36-2.212.8-.783.44-1.689.8-2.012.8-.323 0-.588.18-.588.4 0 .22-.36.4-.8.4-.44 0-.8.18-.8.4 0 .22-.32.4-.712.4-.391 0-.971.36-1.288.8-.331.46-1.035.8-1.655.8-.593 0-1.138.135-1.212.3-.073.165-1.258.828-2.633 1.474-1.375.645-2.5 1.32-2.5 1.5 0 .179-.36.326-.8.326-.44 0-.8.18-.8.4 0 .22-.32.4-.712.4-.391 0-.971.36-1.288.8-.317.44-.897.8-1.288.8-.392 0-.712.18-.712.4 0 .22-.278.4-.617.4-.339 0-1.003.36-1.475.8-.472.44-1.095.8-1.383.8-.289 0-.525.18-.525.4 0 .22-.236.4-.525.4-.288 0-.911.36-1.383.8-.472.44-1.006.8-1.187.8-.181 0-.588.36-.905.8-.317.44-.825.8-1.128.8-.303 0-1.055.54-1.672 1.2-.617.66-1.409 1.2-1.76 1.2-.352 0-.64.18-.64.4 0 .22-.276.4-.613.4-.338 0-1.244.63-2.014 1.4-.77.77-1.619 1.402-1.886 1.404-.268.002-1.43.902-2.582 2-1.153 1.098-2.256 1.996-2.452 1.996-.196 0-.988.72-1.759 1.6-.772.88-1.615 1.6-1.874 1.6-.26 0-1.349.9-2.42 2s-2.153 2-2.403 2c-.583 0-1.597 1.009-1.597 1.59 0 .664-1.87 2.41-2.582 2.41-.34 0-.618.185-.618.412 0 .226-1.17 1.564-2.6 2.973-1.43 1.409-2.6 2.754-2.6 2.989 0 .234-.249.426-.554.426-.305 0-.877.493-1.273 1.097-.395.603-1.585 1.941-2.646 2.974C52.867 69.503 52 70.554 52 70.805c0 .252-.72 1.149-1.6 1.995-.88.846-1.6 1.626-1.6 1.734 0 .109-.9 1.146-2 2.305-1.1 1.16-2 2.254-2 2.432 0 .298-1.098 1.707-2.3 2.954-.275.285-.5.801-.5 1.146 0 .346-.18.629-.4.629-.22 0-.4.36-.4.8 0 .533-.267.8-.8.8s-.8.267-.8.8c0 .44-.18.8-.4.8-.22 0-.4.294-.4.653 0 .359-.315.944-.7 1.3-.385.356-.758.917-.83 1.247-.071.33-.296.66-.5.733-.203.074-.37.345-.37.604s-.36.695-.8.97c-.44.275-.8.768-.8 1.096 0 .329-.136.597-.302.597-.167 0-.527.506-.801 1.125-.273.619-.857 1.511-1.297 1.983-.44.472-.8 1.136-.8 1.475 0 .339-.158.617-.35.617-.193 0-.455.524-.583 1.165-.128.64-.691 1.622-1.25 2.182-.559.559-1.017 1.295-1.017 1.635 0 .34-.18.618-.4.618-.22 0-.4.36-.4.8 0 .44-.18.8-.4.8-.22 0-.4.345-.4.768 0 .867-1.242 3.226-1.7 3.229-.165.002-.3.453-.3 1.003 0 .55-.18 1-.4 1-.22 0-.4.45-.4 1s-.18 1-.4 1c-.22 0-.4.429-.4.953 0 .637-.283 1.028-.852 1.176-.541.142-.77.437-.627.808.123.322-.028.918-.336 1.324-.308.407-.565 1.245-.572 1.863-.007.618-.155 1.036-.328.928-.173-.107-.355.288-.404.877-.048.589-.266 1.131-.484 1.204-.219.074-.397.451-.397.838 0 .388-.36 1.031-.8 1.429-.443.401-.8 1.232-.8 1.862 0 .626-.18 1.138-.4 1.138-.22 0-.4.529-.4 1.176 0 .647-.18 1.288-.4 1.424-.22.136-.4.495-.4.798 0 .302-.208 1.057-.462 1.676-.255.619-.499 1.306-.543 1.526-.229 1.145-.729 2.2-1.042 2.2-.194 0-.353.885-.353 1.967 0 1.081-.184 2.028-.408 2.102-.225.075-.45.72-.5 1.433-.051.713-.227 1.297-.392 1.297-.165.001-.3.363-.3.806 0 .443-.152 1.118-.338 1.5l-.723 1.495c-.213.44-.43 1.52-.482 2.399-.053.88-.267 1.771-.476 1.98-.21.21-.381 1.299-.381 2.421 0 1.122-.199 2.239-.442 2.482-.243.243-.538 1.989-.656 3.88-.118 1.891-.369 3.438-.558 3.438-.189 0-.344.9-.344 2s-.18 2-.4 2c-.239 0-.4 1.533-.4 3.8s-.161 3.8-.4 3.8c-.262 0-.4 7.2-.4 20.8 0 13.6.138 20.8.4 20.8.239 0 .4 1.533.4 3.8s.161 3.8.4 3.8c.22 0 .4.9.4 2s.155 2 .345 2c.189 0 .437 1.634.551 3.632.114 1.997.409 3.833.656 4.08.246.246.448 1.276.448 2.288 0 1.012.16 2.011.356 2.22.196.209.45 1.303.565 2.431.114 1.128.494 2.604.843 3.28.35.676.636 1.508.636 1.849 0 .341.135.62.3.621.165 0 .353.763.417 1.696.064.933.289 1.869.5 2.08.211.211.383.851.383 1.423 0 1.073.819 3.191 1.235 3.197.13.002.261.677.292 1.5.031.824.24 1.559.464 1.633.225.075.409.482.409.903 0 .422.18.767.4.767.22 0 .4.54.4 1.2 0 .66.18 1.2.4 1.2.22 0 .4.68.4 1.512 0 1.053.243 1.686.8 2.088.44.317.8.897.8 1.288 0 .392.18.712.4.712.22 0 .4.349.4.776 0 .427.18.888.4 1.024.22.136.4.777.4 1.424 0 .647.18 1.176.4 1.176.22 0 .4.54.4 1.2 0 .933.178 1.2.8 1.2.622 0 .8.267.8 1.2 0 .66.18 1.2.4 1.2.22 0 .4.36.4.8 0 .44.18.8.4.8.22 0 .4.388.4.862s.45 1.452 1 2.174c.55.721 1 1.683 1 2.137 0 .455.18.827.4.827.22 0 .4.272.4.605 0 .772.799 2.199 1.7 3.038.385.358.7.945.7 1.304 0 .359.18.653.4.653.22 0 .4.416.4.925 0 .508.315 1.273.7 1.7.385.426.955 1.27 1.268 1.875.312.605.717 1.1.9 1.1.182 0 .332.36.332.8 0 .44.18.8.4.8.22 0 .4.232.4.516 0 .284.72 1.312 1.6 2.284.88.972 1.6 2 1.6 2.284 0 .284.18.516.4.516.22 0 .4.36.4.8 0 .44.18.8.4.8.22 0 .4.27.4.6 0 .333.356.6.8.6.533 0 .8.267.8.8 0 .44.18.8.4.8.22 0 .4.349.4.776 0 .427.191.895.425 1.039.233.145.589.695.79 1.224.201.528.64.961.975.961.336 0 .61.288.61.64 0 .351.54 1.143 1.2 1.76.66.617 1.2 1.369 1.2 1.672 0 .303.36.811.8 1.128.44.317.8.813.8 1.101 0 .288.315.645.699.792.753.289 2.501 1.911 2.501 2.32 0 .137.72.941 1.6 1.787.88.846 1.6 1.737 1.6 1.982 0 .601 2.658 3.227 2.96 2.925.132-.132.24-.034.24.218 0 .569 11.084 11.675 11.651 11.675.227 0 1.103.72 1.949 1.6.846.88 1.821 1.6 2.169 1.6.347 0 .631.156.631.346 0 .475 3.953 4.454 4.426 4.454.21 0 .946.54 1.637 1.2.691.66 1.434 1.2 1.653 1.2.219 0 .913.54 1.544 1.2.631.66 1.415 1.2 1.743 1.2.329 0 .597.15.597.332 0 .183.495.588 1.1.9.605.313 1.319.748 1.586.968.267.22.755.625 1.083.9.329.275.856.5 1.171.5.316 0 .673.256.793.57.12.313.905.889 1.743 1.279.838.391 1.815 1.034 2.171 1.431.356.396.941.72 1.3.72.359 0 .653.18.653.4 0 .22.32.4.712.4.391 0 .971.36 1.288.8.317.44.857.8 1.2.8.343 0 .883.36 1.2.8.317.44.897.8 1.288.8.392 0 .712.18.712.4 0 .22.36.4.8.4.44 0 .8.18.8.4 0 .22.36.4.8.4.44 0 .8.18.8.4 0 .22.278.4.617.4.339 0 1.003.36 1.475.8.472.44 1.185.8 1.583.8.399 0 .725.18.725.4 0 .22.36.4.8.4.44 0 .8.18.8.4 0 .22.242.4.539.4.687 0 2.973 1.133 3.277 1.625.127.206.761.375 1.408.375.647 0 1.176.18 1.176.4 0 .22.5.4 1.112.4.653 0 1.349.33 1.688.8.339.47 1.035.8 1.688.8.612 0 1.112.18 1.112.4 0 .22.45.4 1 .4s1 .18 1 .4c0 .22.45.4 1 .4s1 .18 1 .4c0 .22.349.4.776.4.427 0 .888.18 1.024.4.136.22.777.4 1.424.4.647 0 1.176.18 1.176.4 0 .22.36.4.8.4.44 0 .8.18.8.4 0 .22.54.4 1.2.4.66 0 1.2.18 1.2.4 0 .22.72.4 1.6.4.88 0 1.6.18 1.6.4 0 .22.349.4.776.4.427 0 .888.18 1.024.4.136.22.676.4 1.2.4.524 0 1.064.18 1.2.4.136.22.777.4 1.424.4.647 0 1.176.18 1.176.4 0 .22.9.4 2 .4s2 .157 2 .348c0 .191.765.463 1.7.604 4.119.621 4.7.756 4.7 1.092 0 .196.439.356.976.356.537 0 1.088.18 1.224.4.136.22 1.396.4 2.8.4s2.664.18 2.8.4c.136.22 1.407.4 2.824.4 1.417 0 2.576.154 2.576.343 0 .188 1.845.469 4.1.623 2.255.154 4.16.449 4.233.657.173.489 39.938.509 40.24.02.121-.196 2.022-.485 4.224-.643 2.202-.157 4.003-.447 4.003-.643s1.339-.357 2.976-.357 3.088-.18 3.224-.4c.136-.22 1.306-.4 2.6-.4s2.464-.18 2.6-.4c.136-.22.599-.4 1.029-.4a3.88 3.88 0 0 0 1.476-.353c.966-.49 4.303-1.247 5.501-1.247.547 0 .994-.18.994-.4 0-.22.9-.4 2-.4s2-.18 2-.4c0-.22.452-.4 1.005-.4.553 0 1.318-.159 1.7-.353a32.261 32.261 0 0 1 1.895-.847c.66-.271 1.513-.652 1.895-.847.382-.194 1.327-.353 2.1-.353.773 0 1.405-.18 1.405-.4 0-.22.54-.4 1.2-.4.66 0 1.2-.18 1.2-.4 0-.22.36-.4.8-.4.44 0 .8-.18.8-.4 0-.22.439-.4.976-.4.537 0 1.088-.18 1.224-.4.136-.22.597-.4 1.024-.4.427 0 .776-.18.776-.4 0-.22.54-.4 1.2-.4.66 0 1.2-.18 1.2-.4 0-.22.45-.4 1-.4s1-.18 1-.4c0-.22.36-.4.8-.4.44 0 .8-.18.8-.4 0-.22.36-.4.8-.4.44 0 .8-.18.8-.4 0-.22.54-.4 1.2-.4.66 0 1.2-.18 1.2-.4 0-.22.291-.4.646-.4.756 0 9.891-4.425 10.087-4.887.074-.172.479-.313.9-.313.422 0 .767-.18.767-.4 0-.22.278-.4.617-.4.339 0 1.003-.36 1.475-.8.472-.44 1.095-.8 1.383-.8.289 0 .525-.18.525-.4 0-.22.32-.4.712-.4.391 0 .971-.36 1.288-.8.317-.44.897-.8 1.288-.8.392 0 .712-.18.712-.4 0-.22.278-.4.617-.4.339 0 1.003-.36 1.475-.8.472-.44 1.095-.8 1.383-.8.289 0 .525-.18.525-.4 0-.22.27-.4.6-.4.33 0 .6-.18.6-.4 0-.22.27-.4.6-.4.33 0 .6-.18.6-.4 0-.22.188-.4.418-.4.23 0 .868-.45 1.418-1 .55-.55 1.352-1 1.782-1 .43 0 .782-.168.782-.373s.323-.476.717-.601c.395-.125 1.385-.857 2.201-1.627.816-.769 1.753-1.399 2.083-1.399.329 0 .599-.168.599-.373s.372-.491.827-.635c.454-.145 1.801-1.237 2.991-2.427 1.191-1.191 2.439-2.165 2.773-2.165.335 0 .609-.161.609-.358 0-.536 2.253-2.842 2.777-2.842.25 0 1.14-.72 1.977-1.6.837-.88 1.657-1.6 1.821-1.6.443 0 10.225-9.963 10.225-10.414 0-.212.276-.386.613-.386.336 0 .731-.315.877-.7.379-1.001 1.153-1.7 1.881-1.7a.632.632 0 0 0 .629-.631c0-.348.72-1.323 1.6-2.169.88-.846 1.6-1.659 1.6-1.808 0-.149.54-.775 1.2-1.392.66-.617 1.2-1.32 1.2-1.562 0-.243.9-1.323 2-2.4s2-2.169 2-2.427c0-.531.975-1.605 1.471-1.622.417-.014 2.129-3.379 2.129-4.185 0-.337.353-.604.8-.604.587 0 .8-.267.8-1s.213-1 .8-1c.533 0 .8-.267.8-.8 0-.44.18-.8.4-.8.22 0 .4-.278.4-.617 0-.339.36-1.003.8-1.475.44-.472.8-1.095.8-1.383 0-.289.18-.525.4-.525.22 0 .4-.32.4-.712 0-.391.36-.971.8-1.288.44-.317.8-.854.8-1.192 0-.339.36-.84.8-1.115.44-.275.8-.858.8-1.296 0-.439.18-.797.4-.797.22 0 .4-.278.4-.617 0-.339.36-1.003.8-1.475.44-.472.8-1.095.8-1.383 0-.289.18-.525.4-.525.22 0 .4-.27.4-.6 0-.33.18-.6.4-.6.22 0 .4-.236.4-.525 0-.289.36-1.27.8-2.181.44-.91.8-1.822.8-2.026 0-.203.27-.594.6-.868.33-.274.6-.926.6-1.449s.18-.951.4-.951c.22 0 .4-.36.4-.8 0-.44.135-.801.3-.803.359-.004 1.3-1.941 1.3-2.677 0-.286.18-.52.4-.52.22 0 .4-.36.4-.8 0-.44.18-.8.4-.8.22 0 .4-.36.4-.8 0-.44.18-.8.4-.8.22 0 .4-.63.4-1.4 0-.77.18-1.4.4-1.4.22 0 .4-.27.4-.6 0-.33.18-.6.4-.6.22 0 .4-.27.4-.6 0-.33.18-.6.4-.6.22 0 .4-.54.4-1.2 0-.66.18-1.2.4-1.2.22 0 .4-.638.4-1.417 0-.869.313-1.752.81-2.286.445-.478.723-1.094.617-1.37-.106-.276-.008-.615.218-.755.225-.139.313-.505.195-.812-.118-.308-.041-.56.173-.56.213 0 .387-.36.387-.8 0-.44.18-.8.4-.8.22 0 .4-.709.4-1.576 0-.867.18-1.688.4-1.824.22-.136.4-.777.4-1.424 0-.647.18-1.176.4-1.176.22 0 .4-.51.4-1.133 0-.624.123-1.257.274-1.408.552-.552 1.314-3.299 1.32-4.759.003-.825.186-1.5.406-1.5.22 0 .4-.774.4-1.72s.196-1.916.435-2.155c.239-.239.535-1.895.657-3.68.122-1.785.377-3.245.565-3.245.189 0 .343-.72.343-1.6 0-.88.18-1.6.4-1.6.239 0 .4-1.533.4-3.8s.161-3.8.4-3.8c.22 0 .4-.9.4-2s.18-2 .4-2c.261 0 .4-7.067.4-20.4 0-13.333-.139-20.4-.4-20.4-.22 0-.4-.99-.4-2.2 0-1.21-.18-2.2-.4-2.2-.24 0-.4-1.6-.4-4s-.16-4-.4-4c-.22 0-.4-.529-.4-1.176 0-.647-.153-1.271-.34-1.387-.186-.115-.451-1.789-.587-3.719-.136-1.93-.433-3.571-.66-3.647-.227-.076-.413-1.023-.413-2.104 0-1.082-.18-1.967-.4-1.967-.22 0-.4-.799-.4-1.776s-.18-1.888-.4-2.024c-.22-.136-.4-.676-.4-1.2 0-.524-.18-1.064-.4-1.2-.22-.136-.4-.687-.4-1.224 0-.537-.16-.976-.356-.976-.35 0-.664-1.337-1.103-4.7-.122-.935-.383-1.7-.581-1.7-.198 0-.36-.36-.36-.8 0-.44-.18-.8-.4-.8-.22 0-.4-.596-.4-1.325 0-.771-.334-1.683-.8-2.183-.488-.523-.8-1.411-.8-2.275 0-.779-.18-1.417-.4-1.417-.22 0-.4-.349-.4-.776 0-.427-.18-.888-.4-1.024-.22-.136-.4-.557-.4-.935 0-.379-.36-.948-.8-1.265-.47-.339-.8-1.035-.8-1.688 0-.612-.18-1.112-.4-1.112-.22 0-.4-.54-.4-1.2 0-.66-.18-1.2-.4-1.2-.22 0-.4-.36-.4-.8 0-.44-.18-.8-.4-.8-.22 0-.4-.36-.4-.8 0-.44-.18-.8-.4-.8-.22 0-.4-.36-.4-.8 0-.44-.18-.8-.4-.8-.22 0-.4-.36-.4-.8 0-.44-.18-.8-.4-.8-.22 0-.4-.439-.4-.976 0-.537-.187-1.092-.415-1.233-.498-.308-2.179-3.717-2.538-5.146-.14-.559-.703-1.465-1.251-2.013-.548-.547-.996-1.234-.996-1.526 0-.291-.36-.789-.8-1.106-.44-.317-.8-.906-.8-1.308 0-1.127-1.151-3.092-1.81-3.092-.325 0-.59-.36-.59-.8 0-.44-.18-.8-.4-.8-.22 0-.4-.248-.4-.551 0-.303-.273-.778-.607-1.055-.334-.277-.91-1.154-1.28-1.949-.369-.795-.779-1.535-.911-1.645-.132-.11-.673-.83-1.202-1.6-.529-.77-1.26-1.67-1.624-2-.364-.33-.802-1.05-.973-1.6-.171-.55-.426-1.09-.567-1.2-.141-.11-.877-1.01-1.635-2s-1.698-2.091-2.09-2.447c-.391-.356-.711-.835-.711-1.064 0-.23-.54-.872-1.2-1.428-.66-.555-1.2-1.213-1.2-1.461 0-.249-.9-1.329-2-2.4s-2-2.069-2-2.216c0-.506-1.911-2.54-2.156-2.295-.134.134-.244.011-.244-.273 0-.631-13.38-14.016-14.01-14.016-.653 0-1.59-1.044-1.59-1.771a.63.63 0 0 0-.626-.629c-.344 0-1.503-.9-2.574-2s-2.1-2-2.286-2c-.185 0-.597-.36-.914-.8-.317-.44-.807-.8-1.088-.8-.282 0-.512-.18-.512-.4a.4.4 0 0 0-.397-.4c-.361 0-1.692-1.012-3.028-2.3-.285-.275-.728-.5-.986-.5-.257 0-.972-.54-1.589-1.2-.617-.66-1.409-1.2-1.76-1.2-.352 0-.64-.18-.64-.4 0-.22-.36-.4-.8-.4-.452 0-.8-.267-.8-.613 0-.336-.307-.73-.682-.874-.66-.253-1.641-.975-2.734-2.013-.29-.275-.727-.5-.972-.5s-.832-.36-1.304-.8c-.472-.44-1.095-.8-1.383-.8-.289 0-.525-.18-.525-.4 0-.22-.32-.4-.712-.4-.391 0-.971-.36-1.288-.8-.317-.44-.897-.8-1.288-.8-.392 0-.712-.18-.712-.4 0-.22-.36-.4-.8-.4-.44 0-.8-.16-.8-.356 0-.196-.855-.757-1.9-1.246-1.045-.49-1.99-1.019-2.1-1.176-.347-.495-2.892-1.622-3.661-1.622-.407 0-.739-.18-.739-.4 0-.22-.278-.4-.617-.4-.339 0-1.003-.36-1.475-.8-.472-.44-1.174-.8-1.56-.8-.385 0-.812-.18-.948-.4-.136-.22-.597-.4-1.024-.4-.427 0-.776-.18-.776-.4 0-.22-.36-.4-.8-.4-.44 0-.8-.18-.8-.4 0-.22-.36-.4-.8-.4-.44 0-.8-.18-.8-.4 0-.22-.36-.4-.8-.4-.44 0-.8-.18-.8-.4 0-.22-.36-.4-.8-.4-.44 0-.8-.18-.8-.4 0-.22-.45-.4-1-.4s-1-.18-1-.4c0-.22-.54-.4-1.2-.4-.66 0-1.2-.18-1.2-.4 0-.22-.272-.4-.605-.4-.588 0-1.013-.167-2.89-1.138-.492-.254-1.167-.462-1.5-.462-.333 0-.605-.18-.605-.4 0-.22-.54-.4-1.2-.4-.66 0-1.2-.18-1.2-.4 0-.22-.619-.4-1.376-.4-.757 0-1.488-.18-1.624-.4-.136-.22-.597-.4-1.024-.4-.427 0-.776-.18-.776-.4 0-.22-.54-.4-1.2-.4-.66 0-1.2-.18-1.2-.4 0-.22-.619-.4-1.376-.4-.757 0-1.488-.18-1.624-.4-.136-.22-.732-.403-1.324-.406-.592-.003-1.796-.265-2.676-.582-.88-.317-2.455-.585-3.5-.594-1.045-.01-1.9-.198-1.9-.418 0-.22-.72-.4-1.6-.4-.88 0-1.6-.18-1.6-.4 0-.22-.99-.4-2.2-.4-1.21 0-2.2-.18-2.2-.4 0-.222-1.067-.4-2.4-.4s-2.4-.178-2.4-.4c0-.22-.9-.4-2-.4s-2-.18-2-.4c0-.22-.979-.4-2.176-.4s-2.288-.18-2.424-.4c-.16-.259-8.537-.4-23.824-.4-15.451 0-23.576.138-23.576.4m2.691 20.324c.326.207-1.932 2.309-6.714 6.251C162.421 38.781 160 41.679 160 45.388c0 2.178 2.314 4.356 5.351 5.036l2.185.489 4.932-3.327c2.713-1.83 6.282-4.257 7.932-5.394 1.65-1.137 5.497-3.76 8.549-5.829 3.052-2.07 5.901-4.02 6.333-4.334 1.049-.763 1.499-.064 1.526 2.371.18 16.083 11.366 17.596 25.849 3.497 4.318-4.204 4.087-4.387 4.412 3.489.297 7.203.245 7.103 2.566 4.929 3.734-3.496 17.192-11.242 17.806-10.248.171.275.862 1.539 1.538 2.808 5.808 10.916 15.934 12.177 25.835 3.217 2.865-2.593 2.754-2.918 1.267 3.708-.444 1.98-1.035 6.051-1.313 9.048l-.505 5.447 1.07 1.827c4.272 7.29 12.127 3.797 22.542-10.025 1.866-2.476 3.543-4.409 3.727-4.296 3.13 1.935 6.246 20.449 5.432 32.276-.797 11.563 7.064.98 10.752-14.477.394-1.65.873-3.17 1.064-3.379 1.911-2.082 5.05 16.464 5.75 33.979.319 7.986.482 8.981 1.528 9.372 2.499.934 5.697-2.466 8.627-9.172 1.966-4.499 2.132-4.793 2.56-4.529.496.307.116 11.019-.722 20.329-.337 3.74-.684 7.61-.771 8.6-.402 4.542-.69 7.181-1.027 9.4a848.099 848.099 0 0 0-1.606 11.2c-.242 1.76-.614 4.28-.827 5.6-.213 1.32-.839 5.28-1.391 8.8-1.646 10.497-2.19 13.794-2.972 18-.409 2.2-1.037 5.62-1.397 7.6-.359 1.98-1.004 5.4-1.432 7.6l-1.246 6.4c-.257 1.32-.958 3.848-1.557 5.618-1.184 3.495-2.899 11.429-3.975 18.382-.238 1.54-.606 3.88-.818 5.2-.885 5.511-3.334 29.883-3.959 39.4-.253 3.85-.621 8.53-.818 10.4-.305 2.899-.535 6.351-1.026 15.4-.048.88-.224 4.532-.392 8.115-.353 7.535-.341 7.514-2.943 5.08-3.42-3.199-7.098-11.461-6.665-14.974 1.469-11.94 2.252-18.704 2.435-21.021.121-1.54.387-4.87.59-7.4 1.318-16.401 1.519-40.735.413-50-1.706-14.285-3.136-21.007-6.424-30.2-7.266-20.319-22.988-30.961-45.785-30.993-14.896-.02-33.186 4.434-50.737 12.357-3.369 1.521-2.992 1.531-7.078-.188-10.243-4.31-20.768-7.503-29.785-9.036-32.785-5.574-55.963 8.802-63.624 39.46-.807 3.229-.783 1.638-.379 26 .32 19.211.05 28.258-1.216 40.8-1.499 14.858-4.325 26.922-8.034 34.3-1.859 3.698-2.31 3.648-2.702-.3-.131-1.32-.426-3.84-.656-5.6-.37-2.842-.911-7.249-2.406-19.6-.24-1.98-.591-4.77-.779-6.2-.189-1.43-.545-4.22-.791-6.2-.247-1.98-.616-4.77-.82-6.2-.451-3.161-2.303-18.306-2.797-22.887a291.735 291.735 0 0 0-.793-6.513c-.239-1.76-.613-4.64-.831-6.4-.218-1.76-.56-4.46-.76-6l-.778-6a648.56 648.56 0 0 1-.63-5c-.531-4.464-1.11-9.226-1.435-11.8-5.677-44.992-.941-86.504 12.639-110.787 1.993-3.565 2.192-3.356 2.192 2.314 0 12.138 3.88 17.234 8.208 10.78.556-.829 3.013-4.567 5.459-8.307 18.812-28.759 43.082-47.049 69.309-52.233 2.187-.432 4.062-.871 4.166-.976.266-.266.577-.23 1.149.133m.872 175.257c1.662.839 3.862 2.691 7.593 6.39l5.253 5.209 12.627.031 12.626.031 2.869-2.728c1.578-1.5 3.735-3.656 4.794-4.79 1.215-1.301 3.083-2.663 5.061-3.693l3.136-1.631 11.339.012c41.331.043 54.329 11.08 48.556 41.231-4.508 23.546-21.481 31.459-46.417 21.64-23.903-9.411-38.569-29.308-32.097-43.545.753-1.656.296-1.738-9.703-1.738-10.697 0-10.378-.1-9.329 2.909 9.298 26.665-46.437 59.784-68.709 40.827-7.479-6.366-11.598-18.578-11.312-33.536.314-16.398 10.047-24.424 33.15-27.338 1.54-.194 8.52-.378 15.511-.408l12.712-.054 2.34 1.181m86.876 71.332c1.434 1.095 2.66 5.087 1.561 5.087-.22 0-.4-.146-.4-.324 0-1.556-2.651-2.965-5.193-2.761l-2.607.209 1.153-.919c1.95-1.555 4.389-2.129 5.486-1.292m-118.226 4.467c1.607.671 1.825 1.42.413 1.42-2.04 0-5.426 2.138-5.426 3.426 0 .262-.27.7-.6.974-.522.433-.6.186-.6-1.897 0-4.137 2.27-5.571 6.213-3.923m114.386 5.423c-.145.662-.413 3.047-.595 5.3-1.052 13.011-5.772 28.179-11.256 36.169-.632.92-1.148 1.774-1.148 1.898 0 .624-5.204 6.914-7.542 9.116-16.902 15.916-42.087 18.553-61.022 6.39-16.984-10.911-31.929-34.717-33.69-53.668-.386-4.158-.132-4.382 2.267-1.995 9.718 9.667 26.985 17.686 41.987 19.5 2.986.361 16.122.357 18.6-.006 6.807-.995 12.026-2.454 21.146-5.91 7.252-2.748 23.244-12.102 28.654-16.759 1.903-1.638 2.955-1.652 2.599-.035m-6.847 7.951-1.952 1.554.056 4.683c.059 4.858.395 5.963 1.527 5.023.339-.282.606-.805.592-1.163-.018-.441-.143-.36-.387.249-.553 1.375-1.181 1.074-1.251-.6-.151-3.611.183-8.317.609-8.565.25-.146.994-.733 1.654-1.303l1.2-1.037.253 1.103c.249 1.085.253 1.082.3-.198.06-1.663-.228-1.635-2.601.254m1.505 3.503c-.251 1.252-.383 2.351-.292 2.441.091.091.377-.853.635-2.098.258-1.245.39-2.343.292-2.441-.098-.098-.383.846-.635 2.098m-105.007-.738c-.108.176-.032.581.17.9.3.474.369.443.374-.168.005-.62.109-.663.606-.251.346.287.586 1.112.568 1.949l-.033 1.451-.549-1.2c-.331-.722-.557-.929-.568-.519-.026.992.842 2.729 1.24 2.483.666-.411.376-3.609-.389-4.302-.816-.738-1.128-.813-1.419-.343m100.102.968c.185 1.111.241 1.168.367.367.082-.521-.016-1.111-.218-1.313-.222-.222-.28.152-.149.946m-1.952-.087c-.55.43-.803.786-.562.791.241.005.764-.351 1.162-.791.912-1.008.688-1.008-.6 0m-4.759 2.794c-1.847 1.072-3.467 2.124-3.6 2.337-.618.993.151 10.436.909 11.156.73.694.732.686.086-.337-.532-.843-.652-2.006-.61-5.873l.053-4.823 1.461-.934c.803-.514 1.91-1.165 2.46-1.446 1.047-.534 3.146-2.066 2.8-2.043-.11.007-1.712.89-3.559 1.963m-90.209 2.493c.115 2.028.309 3.783.431 3.9.123.117.176-.867.118-2.187-.057-1.32-.076-2.964-.042-3.652l.061-1.253 4.329 2.853c2.38 1.568 4.71 3.072 5.176 3.341.604.348.892.98 1.002 2.2l.153 1.711.07-1.871.07-1.87-2.3-1.293c-1.265-.711-3.689-2.254-5.387-3.429-4.022-2.784-3.929-2.823-3.681 1.55m97.099-.287c.002 1.54.074 2.121.161 1.291.087-.83.085-2.09-.003-2.8-.089-.71-.16-.031-.158 1.509m3.719-.95c-.141.703-.181 1.352-.091 1.442.091.091.289-.401.441-1.092.152-.691.193-1.341.091-1.442-.102-.102-.3.389-.441 1.092m-18.05 2.777c-.66.422-3.136 1.624-5.502 2.67-2.366 1.046-4.124 1.961-3.908 2.033.217.072 2.855-1.055 5.863-2.505 6.441-3.104 5.812-3.357 6.15 2.473.252 4.361.277 4.467.335 1.458.129-6.73-.371-7.773-2.938-6.129m14.264 2.223a32.953 32.953 0 0 1-.263 2.6l-.198 1.35.421-1.342c.231-.738.349-1.908.262-2.6l-.158-1.258-.064 1.25m-84.064.974c0 .233.156.327.346.21.19-.118 1.107.154 2.038.604.931.45 1.781.73 1.888.623.2-.2-3.3-1.861-3.923-1.861-.192 0-.349.191-.349.424m.03 3.209c.016 1.412.175 3.377.354 4.367.212 1.175.251.342.115-2.4-.236-4.715-.515-5.884-.469-1.967m-11.277-.758c.595 1.567 2.83 5.925 3.038 5.925.199 0-2.826-6.369-3.205-6.747-.129-.13-.055.24.167.822m16.047-.785c0 .333 5.585 2.382 6.061 2.223.256-.085-.687-.565-2.097-1.065-3.437-1.219-3.964-1.373-3.964-1.158m54.343.41c-.079.275-.041 1.94.084 3.7l.226 3.2.074-3.7c.068-3.459-.044-4.392-.384-3.2m-3.201.703c-1.207.715-8.079 2.439-13.314 3.34-3.171.546-5.21 1.082-5.27 1.384-.054.271-.007.309.105.083.112-.226.805-.41 1.54-.41 1.323 0 2.754-.25 7.797-1.364 4.352-.962 7.743-1.912 8.88-2.488 1.703-.864 1.872-.702 2.035 1.952l.152 2.5-.033-2.596c-.036-2.722-.453-3.253-1.892-2.401m-57.473 1.597c-.013.55.126 1.72.308 2.6.212 1.026.339 1.241.354.6.013-.55-.126-1.72-.308-2.6-.212-1.026-.339-1.241-.354-.6m13.793-.002c.898.363 1.713 5.73 1.243 8.187-.104.545-.035.896.153.779 1.508-.932.069-9.401-1.587-9.339-.5.019-.451.114.191.373m2.845.667c-.1.184-.051 1.865.11 3.735l.293 3.4-.055-3.342-.055-3.341 1.8.287c.99.158 2.7.461 3.8.674 1.1.213 4.812.478 8.248.589l6.249.201.297 2.066c.909 6.313.89 6.222.925 4.466.017-.88-.191-2.77-.463-4.2l-.495-2.6-6.18-.269c-5.366-.234-10.512-.906-13.436-1.753-.47-.136-.937-.097-1.038.087M241.238 310c-.084 1.519-1.437 4.214-2.484 4.947-.512.359-.728.653-.479.653 1.25 0 3.607-4.342 3.201-5.897-.127-.486-.2-.394-.238.297m3.662-.524c.385.1 1.015.1 1.4 0 .385-.101.07-.183-.7-.183s-1.085.082-.7.183m-17.98 3.324c0 1.21.075 1.705.167 1.1a8.899 8.899 0 0 0 0-2.2c-.092-.605-.167-.11-.167 1.1m-66.12-1.431c0 .753 2.074 3.029 2.72 2.985.611-.042.609-.065-.026-.231-.389-.101-1.154-.842-1.7-1.646-.547-.805-.994-1.303-.994-1.108m45.72 1.831c0 1.21.075 1.705.167 1.1a8.899 8.899 0 0 0 0-2.2c-.092-.605-.167-.11-.167 1.1m-36.914-.167c.003.422.189 1.037.412 1.367.297.438.334.276.138-.6-.329-1.471-.558-1.79-.55-.767M230.6 315.2c.136.22.642.387 1.124.372.845-.027.847-.041.076-.372-1.101-.473-1.492-.473-1.2 0m-60.191.211c-.012.531 1.131 2.246 1.926 2.889.676.547 4.462.611 6.065.103.589-.187-.092-.23-1.658-.106-3.566.283-4.409.007-5.446-1.783-.483-.833-.882-1.329-.887-1.103M226.1 316.5c-.43 1.175-.42 1.226.112.524.509-.672.809-1.824.476-1.824-.062 0-.327.585-.588 1.3m-41.672-.587c-.052.95 1.054 3.081 2.017 3.884l.955.797-.892-1.015c-.491-.558-1.154-1.727-1.472-2.597-.319-.87-.592-1.351-.608-1.069m22.446 1.517c-.071 1.954.943 3.77 2.106 3.77.18 0-.137-.366-.706-.813-.826-.65-1.062-1.231-1.18-2.9l-.146-2.087-.074 2.03m27.226-1.554c.385.1 1.015.1 1.4 0 .385-.101.07-.183-.7-.183s-1.085.082-.7.183m-53.5 1.351c-.66.423-.995.77-.744.771.25.001.88-.352 1.4-.785 1.189-.99.903-.984-.656.014m24.264 2.019c-.278.446-1.081 1.061-1.785 1.366-.733.319-.983.563-.585.572.755.017 3.44-2.183 3.091-2.533-.119-.118-.443.15-.721.595m-15.064 2.358c.767.326 4.111.549 3.767.252-.092-.079-1.157-.245-2.367-.368-1.369-.139-1.898-.096-1.4.116m7.4-.004-2.2.27 1.8.042c.99.023 2.52-.107 3.4-.289 2.02-.418.328-.431-3-.023m14.515-.104c1.273.08 3.253.079 4.4-.002 1.147-.08.105-.145-2.315-.144-2.42.001-3.358.066-2.085.146m-17.004 7.197c.94.085 2.38.084 3.2-.002.819-.086.049-.155-1.711-.154-1.76.002-2.43.072-1.489.156m-4.406.39c.497.096 1.217.092 1.6-.008.382-.1-.025-.179-.905-.174-.88.004-1.193.086-.695.182m10.128-.139c.092.079 1.067.247 2.167.374 1.287.149 1.715.108 1.2-.115-.764-.331-3.714-.558-3.367-.259m12.467.147c.825.087 2.175.087 3 0 .825-.086.15-.157-1.5-.157s-2.325.071-1.5.157m10.6-.002c.715.089 1.885.089 2.6 0 .715-.088.13-.161-1.3-.161-1.43 0-2.015.073-1.3.161m-37.7.911c-.504.217-.578.344-.2.344.33 0 .96-.155 1.4-.344.504-.217.578-.344.2-.344-.33 0-.96.155-1.4.344m19.9-.124c.385.1 1.015.1 1.4 0 .385-.101.07-.183-.7-.183s-1.085.082-.7.183m29.724 1.915c.748.569.719.642-.824 2.038l-1.6 1.447 1.7-1.272c.935-.699 1.7-1.4 1.7-1.558 0-.421-.898-1.246-1.356-1.246-.219 0-.048.266.38.591m-54.224 3.955c0 .11.54.584 1.2 1.054.66.47 1.2.764 1.2.654 0-.11-.54-.584-1.2-1.054-.66-.47-1.2-.764-1.2-.654m48.9 1.1c-1.363.873-1.805 1.46-.6.797.918-.504 2.356-1.616 2.1-1.624-.11-.003-.785.369-1.5.827m-41.3 3.354c.55.314 1.18.572 1.4.572.22 0-.05-.258-.6-.572-.55-.314-1.18-.572-1.4-.572-.22 0 .05.258.6.572m34.2.229c-.88.423-1.15.657-.6.52 1.133-.282 3.212-1.324 2.6-1.303-.22.007-1.12.36-2 .783m-8.4 2.371c-1.089.277-1.107.307-.2.325.55.01 1.36-.136 1.8-.325.986-.424.066-.424-1.6 0m-13.893 1.09c.719.089 1.799.087 2.4-.004s.013-.164-1.307-.162c-1.32.002-1.812.077-1.093.166m5.393.001c.825.087 2.175.087 3 0 .825-.086.15-.157-1.5-.157s-2.325.071-1.5.157m-20.651 5.273c5.428 3.311 19.544 6.091 27.968 5.509 4.095-.283 4.902.166 1.884 1.048-11.709 3.422-23.691 1.092-30.801-5.988-1.523-1.517-1.061-1.794.949-.569" fill="#8444e4"/><path d="M177.942 24.191c-.104.105-1.979.544-4.166.976-26.227 5.184-50.497 23.474-69.309 52.233-2.446 3.74-4.903 7.478-5.459 8.307-4.328 6.454-8.208 1.358-8.208-10.78 0-5.67-.199-5.879-2.192-2.314C76.021 95.12 71.373 128.328 74.836 171c.429 5.28.939 10.86 1.133 12.4.325 2.574.904 7.336 1.435 11.8.118.99.402 3.24.63 5l.778 6c.2 1.54.542 4.24.76 6 .218 1.76.592 4.64.831 6.4.239 1.76.596 4.691.793 6.513.494 4.581 2.346 19.726 2.797 22.887.204 1.43.573 4.22.82 6.2.246 1.98.602 4.77.791 6.2.188 1.43.539 4.22.779 6.2 1.495 12.351 2.036 16.758 2.406 19.6.23 1.76.525 4.28.656 5.6.392 3.948.843 3.998 2.702.3 6.895-13.717 9.869-37.861 9.25-75.1-.404-24.362-.428-22.771.379-26 7.661-30.658 30.839-45.034 63.624-39.46 9.017 1.533 19.542 4.726 29.785 9.036 4.086 1.719 3.709 1.709 7.078.188 26.567-11.993 52.096-15.433 69.692-9.389 12.414 4.264 21.862 14.133 26.83 28.025 3.288 9.193 4.718 15.915 6.424 30.2 1.106 9.265.905 33.599-.413 50-.203 2.53-.469 5.86-.59 7.4-.183 2.317-.966 9.081-2.435 21.021-.433 3.513 3.245 11.775 6.665 14.974 2.602 2.434 2.59 2.455 2.943-5.08.168-3.583.344-7.235.392-8.115.491-9.049.721-12.501 1.026-15.4.197-1.87.565-6.55.818-10.4.625-9.517 3.074-33.889 3.959-39.4.212-1.32.58-3.66.818-5.2 1.076-6.953 2.791-14.887 3.975-18.382.599-1.77 1.3-4.298 1.557-5.618l1.246-6.4c.428-2.2 1.073-5.62 1.432-7.6.36-1.98.988-5.4 1.397-7.6.782-4.206 1.326-7.503 2.972-18 .552-3.52 1.178-7.48 1.391-8.8.213-1.32.585-3.84.827-5.6a848.099 848.099 0 0 1 1.606-11.2c.337-2.219.625-4.858 1.027-9.4.087-.99.434-4.86.771-8.6.838-9.31 1.218-20.022.722-20.329-.428-.264-.594.03-2.56 4.529-2.93 6.706-6.128 10.106-8.627 9.172-1.046-.391-1.209-1.386-1.528-9.372-.7-17.515-3.839-36.061-5.75-33.979-.191.209-.67 1.729-1.064 3.379-3.688 15.457-11.549 26.04-10.752 14.477.814-11.827-2.302-30.341-5.432-32.276-.184-.113-1.861 1.82-3.727 4.296-10.415 13.822-18.27 17.315-22.542 10.025l-1.07-1.827.505-5.447c.278-2.997.869-7.068 1.313-9.048 1.487-6.626 1.598-6.301-1.267-3.708-9.901 8.96-20.027 7.699-25.835-3.217-.676-1.269-1.367-2.533-1.538-2.808-.614-.994-14.072 6.752-17.806 10.248-2.321 2.174-2.269 2.274-2.566-4.929-.325-7.876-.094-7.693-4.412-3.489-14.483 14.099-25.669 12.586-25.849-3.497-.027-2.435-.477-3.134-1.526-2.371-.432.314-3.281 2.264-6.333 4.334a1778.023 1778.023 0 0 0-8.549 5.829c-1.65 1.137-5.219 3.564-7.932 5.394l-4.932 3.327-2.185-.489c-3.037-.68-5.351-2.858-5.351-5.036 0-3.709 2.421-6.607 12.377-14.813 4.782-3.942 7.04-6.044 6.714-6.251-.572-.363-.883-.399-1.149-.133M149.4 198.862c-23.103 2.914-32.836 10.94-33.15 27.338-.68 35.522 21.083 48.547 53.796 32.197 19.664-9.83 30.748-26.518 26.225-39.488-1.049-3.009-1.368-2.909 9.329-2.909 9.999 0 10.456.082 9.703 1.738-6.472 14.237 8.194 34.134 32.097 43.545 24.936 9.819 41.909 1.906 46.417-21.64 5.773-30.151-7.225-41.188-48.556-41.231l-11.339-.012-3.136 1.631c-1.978 1.03-3.846 2.392-5.061 3.693-1.059 1.134-3.216 3.29-4.794 4.79l-2.869 2.728-12.626-.031-12.627-.031-5.253-5.209c-3.731-3.699-5.931-5.551-7.593-6.39l-2.34-1.181-12.712.054c-6.991.03-13.971.214-15.511.408m114.353 72.021c-.686.221-1.766.816-2.4 1.322l-1.153.919 2.607-.209c2.542-.204 5.193 1.205 5.193 2.761 0 .178.18.324.4.324 1.099 0-.127-3.992-1.561-5.087-.749-.572-1.385-.578-3.086-.03m-120.524 4.971c-1.059 1.347-1.268 6.208-.229 5.346.33-.274.6-.712.6-.974 0-1.288 3.386-3.426 5.426-3.426 1.412 0 1.194-.749-.413-1.42-2.273-.95-4.412-.762-5.384.474m117.171 4.984c-5.41 4.657-21.402 14.011-28.654 16.759-4.699 1.781-8.799 3.187-11.146 3.823-24.454 6.628-53.668-.577-70.587-17.407-2.399-2.387-2.653-2.163-2.267 1.995 1.761 18.951 16.706 42.757 33.69 53.668 18.935 12.163 44.12 9.526 61.022-6.39 2.338-2.202 7.542-8.492 7.542-9.116 0-.124.516-.978 1.148-1.898 5.484-7.99 10.204-23.158 11.256-36.169.182-2.253.45-4.638.595-5.3.356-1.617-.696-1.603-2.599.035m-1.751 8.262c-.445 3.263-2.305 10.272-2.887 10.883-1.069 1.121-1.447-.132-1.506-4.992l-.056-4.683 1.952-1.554c2.541-2.022 2.815-1.984 2.497.346m-104.58 2.762c.772.699 1.052 3.892.377 4.309-.336.208-.589-.325-1.543-3.248-.583-1.788-.112-2.217 1.166-1.061m99.067 6.394c-.2 9.313-1.745 12.056-6.477 11.499-3.808-.447-4.024-.795-4.259-6.818-.165-4.241-.095-5.231.4-5.673 1.372-1.226 9.827-5.95 10.136-5.663.185.171.275 3.166.2 6.655m-93.623-2.119c1.698 1.175 4.097 2.704 5.33 3.397l2.244 1.26.26 3.303c.144 1.817.372 4.338.507 5.602.295 2.771.001 3.219-2.709 4.119-2.52.837-2.756.652-5.245-4.126-3.211-6.161-3.842-8.027-4.069-12.035-.246-4.34-.338-4.302 3.682-1.52m81.833 4.119c1.49 10.872-.377 15.446-6.319 15.484-5.529.035-6.593-1.071-6.996-7.27-.297-4.577-.8-3.938 5.233-6.651 2.785-1.253 5.395-2.529 5.8-2.836 1.399-1.06 2.009-.719 2.282 1.273m-69.657 2.701c2.63 1.192 5.021 2.107 8.093 3.096 2.994.963 3.004.982 3.012 5.485.009 5.577-1.816 7.262-7.867 7.262-4.038 0-6.127-4.78-6.127-14.016 0-3.141-.004-3.138 2.889-1.827m55.227 6.545c.666 9.454-2.833 12.426-14.164 12.033-5.861-.203-6.167-.753-6.539-11.713-.007-.209 2.327-.782 5.187-1.274 5.258-.905 12.132-2.629 13.342-3.345 1.57-.929 1.844-.386 2.174 4.299M189 308.243c1.76.34 5.981.739 9.381.888l6.18.269.495 2.6c1.592 8.367-.128 10-10.529 10-7.759 0-9.857-1.982-10.489-9.911-.379-4.759-.32-5.067.907-4.711.47.136 2.295.526 4.055.865m14.962 21.004c.685.239 2.246.322 3.533.188 13.56-1.407 27.882.009 28.803 2.847.228.701-4.7 4.211-9.098 6.481-15.082 7.785-32.907 6.679-46.02-2.856-3.087-2.244-3.143-2.509-.79-3.702 6.616-3.352 18.252-4.813 23.572-2.958M183.6 348.618c0 .776 5.288 4.798 8 6.085 6.184 2.936 15.736 3.346 23.701 1.018 3.018-.882 2.211-1.331-1.884-1.048-8.424.582-22.54-2.198-27.968-5.509-1.264-.77-1.849-.943-1.849-.546" fill="#040404"/><path d="M257 288.632c-.66.57-1.427 1.165-1.705 1.321-.526.296-.885 9.39-.391 9.884.616.616 1.129-.634 2.303-5.607 1.511-6.396 1.486-7.062-.207-5.598m-103.782 3.619c.01.412.265 1.289.568 1.949l.549 1.2.033-1.451c.018-.837-.222-1.662-.568-1.949-.497-.413-.597-.37-.582.251m98.182.149c-.398.44-.889.8-1.09.8-.201 0-1.151.54-2.11 1.2-.959.66-1.851 1.2-1.981 1.2-.13 0-.935.462-1.789 1.028l-1.553 1.027-.051 4.913c-.063 6.109.141 6.459 3.999 6.846l2.624.263 1.242-1.414c1.567-1.784 2.1-4.279 2.154-10.063.067-7.283.031-7.43-1.445-5.8m-95.061 3.348c-.226 4.611.092 5.967 2.636 11.252 3.425 7.112 3.577 7.279 6.015 6.563 2.472-.725 3.058-1.609 2.623-3.963-.182-.99-.46-3.296-.616-5.124-.237-2.767-.423-3.404-1.112-3.8-.455-.262-2.776-1.76-5.156-3.328l-4.329-2.853-.061 1.253M235 301.424c-2.86 1.407-5.515 2.562-5.9 2.567-1.025.013-1.024 7.169.001 9.183 1.207 2.373 7.52 3.426 9.799 1.633 2.164-1.702 3.013-7.622 2.053-14.307-.296-2.061.303-2.154-5.953.924m-65.833 1.276c-.647 5.926 1.626 14.982 3.904 15.554 5.033 1.263 9.36-1.125 9.294-5.128-.081-4.934-.425-6.062-1.965-6.455-1.861-.475-9.698-3.501-10.18-3.932-.47-.419-1.009-.44-1.053-.039m55.446 2.981c-1.215.704-6.557 2.094-13.544 3.524-1.061.217-2.566.395-3.344.395-1.375 0-1.408.036-1.189 1.3.124.715.347 2.971.497 5.012.388 5.294.594 5.432 7.767 5.201 10.113-.325 12.322-2.422 11.795-11.194-.292-4.868-.421-5.143-1.982-4.238m-40.179 6.378c.48 8.477 3.413 10.521 13.566 9.455 6.434-.675 7.736-1.673 7.194-5.514l-.604-4.266-.293-2.066-6.249-.201c-3.436-.111-7.148-.376-8.248-.589-1.1-.213-2.81-.516-3.8-.674l-1.8-.286.234 4.141m6.111 17.142c-3.628.531-11.745 3.529-11.745 4.338 0 1.36 9.335 6.389 16.2 8.728 11.326 3.858 29.628-.117 39.8-8.644 1.729-1.449 1.511-1.727-2.389-3.046-5.022-1.699-19.452-2.136-24.952-.756-.476.119-2.462-.062-4.414-.402-3.692-.644-8.965-.736-12.5-.218" fill="#e4e5e4"/></g></svg>